# xmcd
#
# Track frame offsets:
#	150
#	11175
#	27952
#	41375
#	51552
#	63150
#	73925
#	84250
#	97777
#	107502
#	117402
#	128600
#	140502
#	158925
#	175477
#
# Disc length: 2567 seconds
#
# Revision: 8
# Processed by: cddbd v1.5.2PL0 Copyright (c) Steve Scherf et al.
# Submitted via: EZCDAudioConverter 8.5.0.1
#
DISCID=c80a050f
DTITLE=Freddy Quinn - Quinn - Junge komm bald wieder - Seine größten Erfolge -
DTITLE=CD3
DYEAR=1997
DGENRE=Country
TTITLE0=Kann Liebe alles verzeih'n?
TTITLE1=Heute Nacht, da brauch' ich Dich
TTITLE2=Green, green grass of home
TTITLE3=Geh'n wir noch mal den Weg nach Westen
TTITLE4=Die Freiheit der Berge
TTITLE5=Die Wahrheit über Tom Dooley
TTITLE6=Die schönste Frau von Texas
TTITLE7=Oh, nur mit Dir
TTITLE8=Oh, Susanna, Du Rose der Prärie
TTITLE9=Oh, wie schade, Clementine
TTITLE10=Nur ein Mann in besten Jahren
TTITLE11=Ich möcht' gern in Tennessee leben
TTITLE12=Er war ein Kind dieser Stadt
TTITLE13=Ein ausgedienter Zug
TTITLE14=Gib mir ein zuhaus
EXTD=
EXTT0=
EXTT1=
EXTT2=
EXTT3=
EXTT4=
EXTT5=
EXTT6=
EXTT7=
EXTT8=
EXTT9=
EXTT10=
EXTT11=
EXTT12=
EXTT13=
EXTT14=
PLAYORDER=
